<svg width="32" height="32" viewBox="0 0 32 32" fill="none" xmlns="http://www.w3.org/2000/svg" xmlns:xlink="http://www.w3.org/1999/xlink">
<path d="M17.602,22.601C17.602,22.601 20.269,20.868 20.802,20.601C21.336,20.334 21.936,20.201 22.269,20.468C22.802,20.801 27.269,23.734 27.669,24.001C28.069,24.268 28.202,25.001 27.736,25.734C27.202,26.468 24.869,29.401 23.869,29.334C22.869,29.334 18.269,29.601 10.336,21.734C2.402,13.801 2.669,9.201 2.669,8.201C2.669,7.201 5.536,4.801 6.269,4.334C7.002,3.801 7.736,4.001 8.002,4.401C8.269,4.801 11.202,9.268 11.536,9.801C11.736,10.134 11.669,10.734 11.402,11.268C11.136,11.801 9.402,14.468 9.402,14.468C9.402,14.468 9.869,16.334 12.736,19.268C15.669,22.134 17.602,22.601 17.602,22.601Z" fill="#FFFFFF"/>
<path d="M23.346,6L16.68,6L16.68,8.667L23.346,8.667C24.08,8.667 24.68,9.267 24.68,10L24.68,16.667L27.346,16.667L27.346,10C27.346,7.8 25.546,6 23.346,6Z" fill="#FFFFFF"/>
<path d="M18.666,10.667L14.199,7.333L18.666,4L18.666,10.667Z" fill="#FFFFFF"/>
</svg>
