<svg width="92" height="90" viewBox="0 0 92 90" fill="none" xmlns="http://www.w3.org/2000/svg" xmlns:xlink="http://www.w3.org/1999/xlink">
<path d="M69.906,-1L22.094,-1C10.444,-1 1,8.444 1,20.094L1,67.906C1,79.556 10.444,89 22.094,89L69.906,89C81.556,89 91,79.556 91,67.906L91,20.094C91,8.444 81.556,-1 69.906,-1Z" fill="#F7F9FA"/>
<path d="M69.906,-1L22.094,-1C10.444,-1 1,8.444 1,20.094L1,67.906C1,79.556 10.444,89 22.094,89L69.906,89C81.556,89 91,79.556 91,67.906L91,20.094C91,8.444 81.556,-1 69.906,-1Z" fill="#F7F9FA"/>
</svg>
