<svg width="2560" height="172" viewBox="0 0 2560 172" fill="none" xmlns="http://www.w3.org/2000/svg" xmlns:xlink="http://www.w3.org/1999/xlink">
<path d="M0,64.199L106.667,71.355C213.334,78.243 426.666,92.955 640,110.544C853.334,128.399 1066.666,149.799 1280,156.955C1493.334,163.843 1706.666,157.155 1920,128.399C2133.34,99.643 2346.66,50.155 2453.34,24.944L2560,-0.001L2560,171.199L2453.34,171.199C2346.66,171.199 2133.34,171.199 1920,171.199C1706.666,171.199 1493.334,171.199 1280,171.199C1066.666,171.199 853.334,171.199 640,171.199C426.666,171.199 213.334,171.199 106.667,171.199L0,171.199L0,64.199Z" fill="#FFFFFF"/>
</svg>
