<svg width="12" height="24" viewBox="0 0 12 24" fill="none" xmlns="http://www.w3.org/2000/svg" xmlns:xlink="http://www.w3.org/1999/xlink">
<path d="M0.078,22.5C0.078,22.103 0.237,21.722 0.518,21.44L8.19,13.768C8.422,13.536 8.607,13.261 8.732,12.957C8.858,12.654 8.923,12.329 8.923,12C8.923,11.672 8.858,11.347 8.732,11.044C8.607,10.74 8.422,10.465 8.19,10.232L0.528,2.565C0.255,2.283 0.104,1.904 0.107,1.51C0.111,1.117 0.268,0.741 0.546,0.463C0.825,0.185 1.201,0.027 1.594,0.023C1.987,0.02 2.366,0.171 2.649,0.445L10.311,8.105C11.341,9.138 11.92,10.537 11.92,11.995C11.92,13.453 11.341,14.852 10.311,15.884L2.639,23.556C2.43,23.766 2.163,23.909 1.872,23.967C1.582,24.025 1.28,23.996 1.006,23.883C0.732,23.77 0.498,23.578 0.333,23.332C0.168,23.086 0.079,22.797 0.078,22.5Z" fill="#105BBA"/>
</svg>
