<svg width="28" height="22" viewBox="0 0 28 22" fill="none" xmlns="http://www.w3.org/2000/svg" xmlns:xlink="http://www.w3.org/1999/xlink">
<path d="M0.766,1.309L12.6,13.144C12.95,13.494 13.417,13.702 13.912,13.727C14.407,13.753 14.893,13.594 15.277,13.281L15.429,13.144L27.254,1.317C27.293,1.464 27.318,1.613 27.332,1.766L27.342,2L27.342,18C27.343,18.672 27.089,19.32 26.631,19.814C26.174,20.307 25.547,20.609 24.876,20.66L24.676,20.666L3.342,20.666C2.67,20.667 2.022,20.412 1.528,19.955C1.035,19.498 0.733,18.871 0.682,18.2L0.676,18L0.676,2C0.676,1.84 0.689,1.685 0.716,1.533L0.766,1.309ZM24.676,-0.667C24.837,-0.667 24.996,-0.654 25.149,-0.626L25.376,-0.574L14.016,10.786L2.652,-0.576C2.798,-0.616 2.95,-0.643 3.105,-0.656L3.342,-0.667L24.676,-0.667Z" fill="#FFFFFF"/>
</svg>
