<svg width="32" height="32" viewBox="0 0 32 32" fill="none" xmlns="http://www.w3.org/2000/svg" xmlns:xlink="http://www.w3.org/1999/xlink">
<path d="M17.602,22.602C17.602,22.602 20.269,20.869 20.802,20.602C21.336,20.335 21.936,20.202 22.269,20.469C22.802,20.802 27.269,23.735 27.669,24.002C28.069,24.269 28.202,25.002 27.736,25.735C27.202,26.469 24.869,29.402 23.869,29.335C22.869,29.335 18.269,29.602 10.336,21.735C2.402,13.802 2.669,9.202 2.669,8.202C2.669,7.202 5.536,4.802 6.269,4.335C7.002,3.802 7.736,4.002 8.002,4.402C8.269,4.802 11.202,9.269 11.536,9.802C11.736,10.135 11.669,10.735 11.402,11.269C11.136,11.802 9.402,14.469 9.402,14.469C9.402,14.469 9.869,16.335 12.736,19.269C15.669,22.135 17.602,22.602 17.602,22.602Z" fill="#FFFFFF"/>
<path d="M23.346,6L16.68,6L16.68,8.667L23.346,8.667C24.08,8.667 24.68,9.267 24.68,10L24.68,16.667L27.346,16.667L27.346,10C27.346,7.8 25.546,6 23.346,6Z" fill="#FFFFFF"/>
<path d="M18.666,10.667L14.199,7.333L18.666,4L18.666,10.667Z" fill="#FFFFFF"/>
</svg>
