<svg width="48" height="48" viewBox="0 0 48 48" fill="none" xmlns="http://www.w3.org/2000/svg" xmlns:xlink="http://www.w3.org/1999/xlink">
<path d="M34.707,14.707C35.098,14.317 35.098,13.683 34.707,13.293C34.317,12.902 33.683,12.902 33.293,13.293L34.707,14.707ZM13.293,33.293C12.902,33.683 12.902,34.317 13.293,34.707C13.683,35.098 14.317,35.098 14.707,34.707L13.293,33.293ZM33.293,13.293L13.293,33.293L14.707,34.707L34.707,14.707L33.293,13.293Z" fill="#090A0A"/>
<path d="M16,13C15.448,13 15,13.448 15,14C15,14.552 15.448,15 16,15L16,13ZM34,14L35,14C35,13.448 34.552,13 34,13L34,14ZM33,32C33,32.552 33.448,33 34,33C34.552,33 35,32.552 35,32L33,32ZM16,15L34,15L34,13L16,13L16,15ZM33,14L33,32L35,32L35,14L33,14Z" fill="#090A0A"/>
</svg>
