<svg width="24" height="24" viewBox="0 0 24 24" fill="none" xmlns="http://www.w3.org/2000/svg" xmlns:xlink="http://www.w3.org/1999/xlink">
<path d="M0,12C0,5.373 5.373,0 12,0C18.627,0 24,5.373 24,12C24,18.627 18.627,24 12,24C5.373,24 0,18.627 0,12ZM12,1.674C9.261,1.674 6.635,2.762 4.699,4.699C2.762,6.635 1.674,9.261 1.674,12C1.674,14.739 2.762,17.365 4.699,19.301C6.635,21.238 9.261,22.326 12,22.326C14.739,22.326 17.365,21.238 19.301,19.301C21.238,17.365 22.326,14.739 22.326,12C22.326,9.261 21.238,6.635 19.301,4.699C17.365,2.762 14.739,1.674 12,1.674Z" clip-rule="evenodd" fill-rule="evenodd" fill="#FFFFFF"/>
<path d="M12.325,8.37C10.089,8.37 8.378,10.048 8.378,11.998C8.378,13.948 10.089,15.626 12.325,15.626C12.895,15.626 13.435,15.514 13.921,15.316C14.023,15.275 14.132,15.254 14.242,15.254C14.352,15.255 14.46,15.277 14.562,15.32C14.663,15.362 14.755,15.424 14.833,15.503C14.91,15.581 14.971,15.673 15.013,15.775C15.054,15.877 15.075,15.986 15.075,16.096C15.074,16.206 15.052,16.315 15.009,16.416C14.967,16.517 14.905,16.609 14.827,16.687C14.748,16.764 14.656,16.825 14.554,16.867C13.846,17.154 13.089,17.301 12.325,17.3C9.275,17.3 6.703,14.979 6.703,11.998C6.703,9.016 9.275,6.695 12.325,6.695C13.089,6.694 13.846,6.841 14.554,7.128C14.76,7.212 14.924,7.374 15.01,7.579C15.096,7.784 15.098,8.014 15.014,8.22C14.93,8.426 14.768,8.59 14.563,8.676C14.358,8.762 14.128,8.764 13.922,8.68C13.415,8.474 12.872,8.369 12.325,8.37Z" clip-rule="evenodd" fill-rule="evenodd" fill="#FFFFFF"/>
</svg>
