<svg width="292" height="290" viewBox="0 0 292 290" fill="none" xmlns="http://www.w3.org/2000/svg" xmlns:xlink="http://www.w3.org/1999/xlink">
<path d="M160.755,164.612C161.607,161.31 162.105,158.626 163.028,156.012C172.264,129.591 187.113,106.061 204.022,83.699C206.012,81.085 208.498,78.608 211.269,76.957C212.761,76.062 215.745,76.2 217.45,77.094C218.729,77.782 219.653,80.466 219.369,81.979C218.871,84.869 217.806,87.828 216.314,90.442C206.509,107.712 196.633,124.913 186.616,142.045C182.85,148.443 178.872,154.773 174.964,161.103C173.685,163.236 172.264,165.3 170.772,167.227C169.138,169.428 166.652,170.736 164.165,169.291C162.531,168.327 160.755,167.639 160.755,164.612Z" transform="rotate(70.349 190.087 123.125)" fill="#000000"/>
<path d="M178.973,267.534C175.563,266.984 171.584,266.571 167.747,265.745C152.614,262.443 137.481,259.14 122.419,255.7C119.151,254.943 115.954,253.636 113.041,252.122C109.133,250.127 107.784,247.306 108.423,244.21C109.062,241.114 111.62,239.187 116.096,239.119C119.151,239.05 122.419,239.119 125.332,239.807C144.444,244.485 163.556,249.302 182.596,254.187C184.728,254.737 186.93,255.7 188.564,257.076C192.685,260.448 191.406,265.745 186.149,267.053C184.088,267.534 181.744,267.328 178.973,267.534Z" transform="rotate(70.349 149.64 253.316)" fill="#000000"/>
<path d="M92.094,14.985C92.379,11.752 93.089,8.518 93.942,5.353C94.723,2.532 96.713,0.537 99.91,0.261C102.609,0.055 105.522,2.67 105.949,6.11C106.517,10.72 107.014,15.398 106.801,20.008C106.162,33.906 105.238,47.873 104.244,61.772C103.888,66.381 103.249,70.991 102.467,75.601C102.183,77.183 101.615,78.835 100.691,80.073C98.204,83.582 93.657,83.307 91.881,79.523C90.887,77.39 90.46,74.775 90.46,72.436C90.105,64.73 91.171,26.407 92.094,14.985Z" transform="rotate(70.349 98.621 41.396)" fill="#000000"/>
</svg>
