<svg width="98" height="98" viewBox="0 0 98 98" fill="none" xmlns="http://www.w3.org/2000/svg" xmlns:xlink="http://www.w3.org/1999/xlink">
<path d="M3.247,43.169L38.753,43.169C41.06,43.169 42.938,41.284 42.938,38.967L42.938,3.323C42.938,1.006 41.06,-0.878 38.753,-0.878L3.247,-0.878C0.94,-0.878 -0.938,1.006 -0.938,3.323L-0.938,38.967C-0.938,41.284 0.94,43.169 3.247,43.169ZM0.938,3.323C0.938,2.044 1.974,1.004 3.247,1.004L38.753,1.004C40.026,1.004 41.063,2.044 41.063,3.323L41.063,38.967C41.063,40.246 40.026,41.286 38.753,41.286L3.247,41.286C1.974,41.286 0.938,40.246 0.938,38.967L0.938,3.323Z" fill="#000000"/>
<path d="M10,25.098L17.063,25.098L17.063,32.188C17.063,32.708 17.483,33.129 18,33.129L24,33.129C24.517,33.129 24.938,32.708 24.938,32.188L24.938,25.098L32,25.098C32.517,25.098 32.938,24.676 32.938,24.157L32.938,18.133C32.938,17.614 32.517,17.192 32,17.192L24.938,17.192L24.938,10.102C24.938,9.582 24.517,9.161 24,9.161L18,9.161C17.483,9.161 17.063,9.582 17.063,10.102L17.063,17.192L10,17.192C9.483,17.192 9.063,17.614 9.063,18.133L9.063,24.157C9.063,24.676 9.483,25.098 10,25.098Z" fill="#000000"/>
<path d="M86,17.192L64,17.192C63.483,17.192 63.063,17.614 63.063,18.133L63.063,24.157C63.063,24.676 63.483,25.098 64,25.098L86,25.098C86.517,25.098 86.938,24.676 86.938,24.157L86.938,18.133C86.938,17.614 86.517,17.192 86,17.192ZM85.063,23.216L64.938,23.216L64.938,19.074L85.063,19.074L85.063,23.216Z" fill="#000000"/>
<path d="M86,65.381L64,65.381C63.483,65.381 63.063,65.803 63.063,66.323L63.063,72.346C63.063,72.866 63.483,73.287 64,73.287L86,73.287C86.517,73.287 86.938,72.866 86.938,72.346L86.938,66.323C86.938,65.803 86.517,65.381 86,65.381Z" fill="#000000"/>
<path d="M86,77.428L64,77.428C63.483,77.428 63.063,77.85 63.063,78.369L63.063,84.393C63.063,84.912 63.483,85.334 64,85.334L86,85.334C86.517,85.334 86.938,84.912 86.938,84.393L86.938,78.369C86.938,77.85 86.517,77.428 86,77.428Z" fill="#000000"/>
<path d="M31.836,69.68C31.836,69.43 31.738,69.19 31.561,69.014L27.318,64.754C26.951,64.386 26.358,64.386 25.991,64.754L20.999,69.766L16.005,64.753C15.639,64.385 15.045,64.385 14.679,64.753L10.435,69.013C10.259,69.19 10.16,69.429 10.16,69.678C10.16,69.928 10.259,70.168 10.435,70.343L15.429,75.358L10.435,80.371C10.069,80.739 10.069,81.335 10.435,81.703L14.679,85.963C14.855,86.14 15.093,86.239 15.341,86.239C15.59,86.239 15.829,86.14 16.004,85.963L20.999,80.95L25.993,85.963C26.175,86.146 26.415,86.239 26.655,86.239C26.895,86.239 27.135,86.148 27.318,85.963L31.561,81.703C31.738,81.526 31.836,81.287 31.836,81.038C31.836,80.788 31.738,80.548 31.561,80.373L26.569,75.358L31.563,70.345C31.738,70.169 31.836,69.929 31.836,69.68ZM24.58,74.693C24.404,74.87 24.305,75.108 24.305,75.358C24.305,75.608 24.404,75.847 24.58,76.023L29.574,81.036L26.656,83.965L21.663,78.952C21.48,78.769 21.24,78.676 21,78.676C20.76,78.676 20.52,78.768 20.338,78.952L15.344,83.965L12.426,81.036L17.42,76.023C17.786,75.655 17.786,75.059 17.42,74.692L12.426,69.678L15.344,66.749L20.338,71.763C20.704,72.13 21.298,72.13 21.664,71.763L26.658,66.749L29.575,69.678L24.58,74.693Z" fill="#000000"/>
<path d="M40.753,53.333L3.247,53.333C0.94,53.333 -0.938,55.217 -0.938,57.534L-0.938,93.178C-0.938,95.495 0.94,97.38 3.247,97.38L40.753,97.38C43.06,97.38 44.938,95.495 44.938,93.178L44.938,57.534C44.938,55.217 43.06,53.333 40.753,53.333ZM43.063,93.178C43.063,94.457 42.026,95.497 40.753,95.497L3.247,95.497C1.974,95.497 0.938,94.457 0.938,93.178L0.938,57.534C0.938,56.255 1.974,55.215 3.247,55.215L40.753,55.215C42.026,55.215 43.063,56.255 43.063,57.534L43.063,93.178Z" fill="#000000"/>
<path d="M92.753,-0.878L57.247,-0.878C54.94,-0.878 53.063,1.006 53.063,3.323L53.063,38.967C53.063,41.284 54.94,43.169 57.247,43.169L92.753,43.169C95.06,43.169 96.938,41.284 96.938,38.967L96.938,3.323C96.938,1.006 95.06,-0.878 92.753,-0.878ZM95.063,38.967C95.063,40.246 94.026,41.286 92.753,41.286L57.247,41.286C55.974,41.286 54.938,40.246 54.938,38.967L54.938,3.323C54.938,2.044 55.974,1.004 57.247,1.004L92.753,1.004C94.026,1.004 95.063,2.044 95.063,3.323L95.063,38.967Z" fill="#000000"/>
<path d="M92.753,53.333L57.247,53.333C54.94,53.333 53.063,55.217 53.063,57.534L53.063,93.178C53.063,95.495 54.94,97.38 57.247,97.38L92.753,97.38C95.06,97.38 96.938,95.495 96.938,93.178L96.938,57.534C96.938,55.217 95.06,53.333 92.753,53.333ZM95.063,93.178C95.063,94.457 94.026,95.497 92.753,95.497L57.247,95.497C55.974,95.497 54.938,94.457 54.938,93.178L54.938,57.534C54.938,56.255 55.974,55.215 57.247,55.215L92.753,55.215C94.026,55.215 95.063,56.255 95.063,57.534L95.063,93.178Z" fill="#000000"/>
</svg>
