<svg width="496" height="400" viewBox="0 0 496 400" fill="none" xmlns="http://www.w3.org/2000/svg" xmlns:xlink="http://www.w3.org/1999/xlink">
<path d="M496,24C496,10.745 485.254,0 472,0L294.562,0C282.102,0 272,10.101 272,22.561L272,22.561C272,35.022 261.898,45.123 249.438,45.123L24,45.123C10.745,45.123 0,55.868 0,69.123L0,376C0,389.254 10.745,400 24,400L471.996,400C485.25,400 495.996,389.254 495.996,376L495.996,78.002C495.996,78.001 495.996,78 495.998,78L495.998,78C496,78 496,77.999 496,77.998L496,24Z" clip-rule="evenodd" fill-rule="evenodd" fill="#F4B2C6"/>
</svg>
