<svg width="40" height="28" viewBox="0 0 40 28" fill="none" xmlns="http://www.w3.org/2000/svg" xmlns:xlink="http://www.w3.org/1999/xlink">
<path d="M39.054,12.043L25.887,0.852C25.591,0.587 25.235,0.375 24.841,0.229C24.447,0.083 24.022,0.005 23.592,0C23.162,-0.004 22.735,0.064 22.336,0.202C21.938,0.339 21.576,0.543 21.271,0.802C20.967,1.06 20.727,1.368 20.565,1.706C20.402,2.045 20.321,2.407 20.326,2.773C20.332,3.138 20.423,3.499 20.595,3.834C20.767,4.17 21.016,4.472 21.327,4.724L29.111,11.329L3.224,11.329C2.369,11.329 1.549,11.618 0.944,12.131C0.34,12.645 0,13.342 0,14.069C0,14.795 0.34,15.492 0.944,16.006C1.549,16.52 2.369,16.809 3.224,16.809L29.039,16.809L21.327,23.373C20.748,23.891 20.43,24.581 20.44,25.296C20.451,26.01 20.79,26.693 21.385,27.198C21.98,27.704 22.784,27.991 23.625,28C24.466,28.008 25.278,27.737 25.887,27.245L39.054,16.054C39.355,15.8 39.593,15.498 39.755,15.166C39.917,14.833 40,14.476 39.998,14.116C40.001,14.094 40.001,14.071 39.998,14.048C40,14.026 40,14.003 39.998,13.98C39.998,13.254 39.659,12.557 39.054,12.043Z" fill="#000000"/>
</svg>
