<svg width="110" height="120" viewBox="0 0 110 120" fill="none" xmlns="http://www.w3.org/2000/svg" xmlns:xlink="http://www.w3.org/1999/xlink">
<path d="M28.969,37.436C29.774,33.142 30.795,29.105 32.025,25.37C30.497,25.118 29.01,24.905 27.568,24.756C16.349,23.599 7.719,25.716 4.355,31.42C0.986,37.114 3.414,45.484 10.051,54.403C10.91,55.551 11.836,56.709 12.833,57.881C15.519,54.987 18.584,52.093 21.993,49.268C21.366,48.135 21.012,46.844 21.012,45.454C21.012,43.243 21.928,41.229 23.41,39.775C24.841,38.375 26.804,37.484 28.969,37.43L28.969,37.436ZM76.078,16.267C78.339,16.267 80.398,17.162 81.885,18.612C82.786,19.493 83.479,20.586 83.888,21.813C89.448,21.397 94.41,21.788 98.462,23.04C102.812,24.37 106.151,26.69 108.113,30.025C110.076,33.359 110.455,37.331 109.474,41.69C108.548,45.741 106.419,50.139 103.272,54.645C104.582,56.07 105.387,57.95 105.387,60.018C105.387,62.086 104.582,63.966 103.272,65.39C106.419,69.897 108.548,74.28 109.474,78.346C110.455,82.665 110.086,86.598 108.179,89.917C108.154,89.981 108.113,90.051 108.058,90.115C104.036,96.793 94.44,99.341 82.133,98.06C80.484,97.887 78.779,97.644 77.034,97.338C76.432,98.965 75.794,100.523 75.127,102.003C70.068,113.119 62.966,120 55.01,120C51.084,120 47.361,118.333 43.998,115.305C40.876,112.49 38.039,108.493 35.626,103.576C35.08,103.695 34.508,103.749 33.921,103.749C31.66,103.749 29.601,102.854 28.114,101.404C27.214,100.524 26.521,99.43 26.111,98.203C20.552,98.619 15.59,98.228 11.538,96.977C7.177,95.646 3.849,93.326 1.886,89.991C1.871,89.967 1.846,89.927 1.831,89.897C-1.154,84.738 -0.39,78.044 3.399,70.807C5.225,67.3 7.774,63.664 10.936,59.998C9.793,58.677 8.725,57.356 7.759,56.04C0.48,46.255 -2.069,36.846 1.831,30.112C1.871,30.048 1.912,29.964 1.952,29.9C5.974,23.221 15.57,20.673 27.877,21.955C29.526,22.128 31.231,22.37 32.976,22.677C34.64,18.156 36.588,14.183 38.783,10.878C43.32,4.027 48.91,0 55.005,0C58.93,0 62.653,1.667 66.017,4.695C69.138,7.51 71.976,11.507 74.388,16.424C74.935,16.305 75.506,16.251 76.093,16.251L76.078,16.267ZM84.283,24.598C84.202,26.69 83.302,28.585 81.885,29.97C81.258,30.584 80.524,31.103 79.72,31.489C80.757,35.61 81.561,40.023 82.118,44.618L82.118,44.697L82.184,44.737C86.003,47.522 89.488,50.416 92.609,53.335C93.919,52.484 95.487,51.989 97.161,51.989C98.537,51.989 99.847,52.321 100.991,52.909C103.879,48.749 105.832,44.737 106.661,41.071C107.491,37.405 107.207,34.101 105.624,31.419C104.041,28.738 101.264,26.848 97.596,25.716C93.929,24.598 89.402,24.222 84.278,24.598L84.283,24.598ZM76.963,32.276C76.675,32.3 76.377,32.315 76.093,32.315C73.832,32.315 71.774,31.42 70.286,29.97C69.578,29.278 68.991,28.452 68.582,27.546C65.339,28.481 61.996,29.614 58.591,30.96C62.051,32.533 65.542,34.304 69.017,36.278C69.032,36.278 69.042,36.292 69.057,36.302C72.517,38.261 75.82,40.314 78.926,42.447C78.41,38.89 77.753,35.486 76.948,32.276L76.963,32.276ZM67.899,24.825C67.899,24.652 67.884,24.479 67.884,24.306C67.884,22.095 68.799,20.081 70.281,18.627C70.716,18.201 71.197,17.825 71.713,17.509C69.477,12.977 66.887,9.321 64.065,6.789C61.227,4.241 58.177,2.841 55,2.841C49.942,2.841 45.187,6.373 41.18,12.428C39.177,15.456 37.361,19.107 35.808,23.252C41.848,24.534 48.333,26.587 54.999,29.387L55.08,29.347C59.456,27.522 63.751,26.003 67.908,24.816L67.899,24.825ZM79.852,20.611C78.886,19.666 77.55,19.077 76.078,19.077C74.606,19.077 73.271,19.666 72.305,20.611C71.338,21.555 70.737,22.861 70.737,24.301C70.737,25.741 71.338,27.047 72.305,27.992C73.271,28.936 74.606,29.525 76.078,29.525C77.55,29.525 78.886,28.936 79.852,27.992C80.818,27.047 81.42,25.741 81.42,24.301C81.42,22.861 80.818,21.555 79.852,20.611ZM33.902,87.717C36.163,87.717 38.222,88.612 39.709,90.062C40.417,90.754 41.004,91.58 41.414,92.486C44.656,91.551 48,90.418 51.404,89.072C47.954,87.499 44.464,85.728 40.989,83.764L40.973,83.764C40.958,83.764 40.948,83.749 40.933,83.739C37.473,81.78 34.17,79.727 31.064,77.595C31.58,81.152 32.238,84.556 33.042,87.766C33.33,87.741 33.629,87.726 33.912,87.726L33.902,87.717ZM42.096,95.221C42.096,95.394 42.112,95.568 42.112,95.741C42.112,97.952 41.196,99.965 39.714,101.42C39.279,101.845 38.798,102.221 38.282,102.538C40.518,107.069 43.108,110.725 45.931,113.258C48.768,115.806 51.819,117.206 54.995,117.206C61.728,117.206 67.919,110.968 72.498,100.89C73.084,99.584 73.656,98.224 74.187,96.799C68.147,95.518 61.663,93.465 54.996,90.665L54.915,90.704C50.555,92.53 46.245,94.048 42.087,95.236L42.096,95.221ZM25.713,95.434C25.794,93.341 26.694,91.447 28.11,90.061C28.738,89.448 29.471,88.929 30.275,88.543C29.238,84.422 28.434,80.009 27.878,75.414L27.878,75.334C22.071,71.095 17.002,66.628 12.845,62.151C9.956,65.535 7.624,68.899 5.945,72.109C2.607,78.496 1.858,84.279 4.321,88.548L4.362,88.612C5.945,91.303 8.722,93.198 12.389,94.316C16.057,95.434 20.584,95.81 25.708,95.434L25.713,95.434ZM37.681,92.05C36.715,91.105 35.379,90.517 33.907,90.517C32.435,90.517 31.1,91.105 30.134,92.05C29.168,92.995 28.566,94.301 28.566,95.741C28.566,97.18 29.168,98.486 30.134,99.431C31.1,100.376 32.435,100.965 33.907,100.965C35.379,100.965 36.715,100.376 37.681,99.431C38.647,98.486 39.249,97.18 39.249,95.741C39.249,94.301 38.647,92.995 37.681,92.05ZM23.776,51.47C24.732,52.296 25.875,52.894 27.129,53.231C27.089,54.126 27.048,55.041 27.018,55.991C26.978,57.431 26.952,58.776 26.952,60.033C26.952,63.951 27.129,67.805 27.458,71.525C22.577,67.79 18.297,63.911 14.726,60.033C17.372,57.169 20.397,54.299 23.776,51.489L23.776,51.47ZM29.993,53.458C31.955,53.285 33.715,52.434 35.021,51.138C36.508,49.684 37.418,47.685 37.418,45.459C37.418,44.272 37.145,43.139 36.67,42.115C37.433,41.635 38.182,41.17 38.931,40.715C40.089,40.022 41.232,39.34 42.391,38.687C46.604,36.312 50.813,34.219 54.986,32.419C59.129,34.205 63.327,36.282 67.526,38.657C67.526,38.657 67.582,38.696 67.607,38.711C71.805,41.086 75.756,43.604 79.398,46.216C79.889,50.629 80.147,55.254 80.147,60.014C80.147,64.773 79.889,69.383 79.398,73.812C75.746,76.424 71.78,78.957 67.566,81.346C67.541,81.361 67.511,81.371 67.501,81.386C63.327,83.745 59.129,85.813 54.986,87.599C50.843,85.813 46.645,83.735 42.446,81.361C42.446,81.361 42.391,81.321 42.365,81.306C38.167,78.932 34.226,76.414 30.574,73.802C30.084,69.389 29.826,64.763 29.826,60.004C29.826,58.564 29.841,57.243 29.881,56.046C29.907,55.195 29.947,54.325 29.993,53.434L29.993,53.458ZM35.051,39.819L35.026,39.794C34.14,38.928 33.048,38.246 31.824,37.86C32.628,33.596 33.65,29.593 34.864,25.928C40.084,27.006 45.658,28.703 51.4,30.969C47.94,32.542 44.45,34.313 40.975,36.287C39.761,36.979 38.577,37.662 37.429,38.355C36.609,38.849 35.805,39.339 35.041,39.819L35.051,39.819ZM32.992,41.778C33.958,42.723 34.56,44.029 34.56,45.468C34.56,46.908 33.958,48.214 32.992,49.159C32.026,50.104 30.691,50.692 29.219,50.692C27.747,50.692 26.411,50.104 25.445,49.159C24.479,48.214 23.877,46.908 23.877,45.468C23.877,44.029 24.479,42.723 25.445,41.778C26.411,40.833 27.746,40.244 29.219,40.244C30.69,40.244 32.026,40.833 32.992,41.778ZM101.012,67.122C99.869,67.711 98.574,68.042 97.183,68.042C95.493,68.042 93.925,67.547 92.63,66.696C89.509,69.615 86.019,72.494 82.205,75.294L82.139,75.334C81.279,82.374 79.848,88.894 77.966,94.652C79.494,94.905 80.981,95.117 82.422,95.266C93.642,96.423 102.271,94.306 105.636,88.602C107.219,85.911 107.517,82.616 106.673,78.95C105.843,75.299 103.89,71.273 101.002,67.112L101.012,67.122ZM90.556,64.747C89.56,63.417 88.973,61.789 88.973,60.013C88.973,58.242 89.56,56.614 90.556,55.279C88.103,52.998 85.432,50.732 82.539,48.521C82.867,52.241 83.045,56.08 83.045,60.013C83.045,63.946 82.867,67.785 82.539,71.505C85.427,69.294 88.098,67.038 90.556,64.747ZM100.956,56.323C99.99,55.378 98.655,54.789 97.183,54.789C95.711,54.789 94.375,55.378 93.409,56.323C92.443,57.267 91.841,58.573 91.841,60.013C91.841,61.453 92.443,62.759 93.409,63.704C94.375,64.648 95.711,65.237 97.183,65.237C98.655,65.237 99.99,64.648 100.956,63.704C101.922,62.759 102.524,61.453 102.524,60.013C102.524,58.574 101.922,57.267 100.956,56.323ZM58.602,89.076C64.339,91.342 69.928,93.024 75.148,94.118C76.797,89.161 78.092,83.585 78.952,77.589C75.816,79.736 72.502,81.804 69.027,83.763C69.002,83.778 68.972,83.788 68.946,83.803C65.486,85.747 62.021,87.508 58.602,89.081L58.602,89.076Z" clip-rule="evenodd" fill-rule="evenodd" fill="#000000" stroke="#000000" stroke-width="1" stroke-miterlimit="3.999327"/>
</svg>
