<svg width="12" height="24" viewBox="0 0 12 24" fill="none" xmlns="http://www.w3.org/2000/svg" xmlns:xlink="http://www.w3.org/1999/xlink">
<path d="M0.079,22.5C0.08,22.102 0.238,21.721 0.519,21.44L8.191,13.768C8.423,13.536 8.608,13.26 8.733,12.957C8.859,12.654 8.924,12.328 8.924,12C8.924,11.672 8.859,11.347 8.733,11.043C8.608,10.74 8.423,10.464 8.191,10.232L0.529,2.565C0.256,2.282 0.105,1.903 0.108,1.51C0.112,1.117 0.269,0.74 0.547,0.462C0.826,0.184 1.202,0.026 1.595,0.023C1.988,0.02 2.367,0.171 2.65,0.444L10.312,8.105C11.342,9.137 11.921,10.536 11.921,11.995C11.921,13.453 11.342,14.852 10.312,15.884L2.64,23.556C2.431,23.766 2.164,23.909 1.873,23.967C1.583,24.025 1.281,23.995 1.007,23.882C0.733,23.77 0.499,23.578 0.334,23.332C0.169,23.086 0.08,22.796 0.079,22.5Z" transform="rotate(360 6 12.009)" fill="#FFFFFF"/>
</svg>
