<svg width="110" height="116" viewBox="0 0 110 116" fill="none" xmlns="http://www.w3.org/2000/svg" xmlns:xlink="http://www.w3.org/1999/xlink">
<path d="M15.96,-0.047C11.57,-0.047 7.966,3.522 7.966,7.875C7.966,12.228 11.57,15.796 15.96,15.796C20.35,15.796 23.956,12.228 23.956,7.875C23.956,3.522 20.35,-0.047 15.96,-0.047ZM15.96,3.921C18.192,3.921 19.956,5.669 19.956,7.875C19.956,10.08 18.192,11.829 15.96,11.829C13.729,11.829 11.965,10.08 11.965,7.875C11.965,5.669 13.729,3.921 15.96,3.921ZM43.092,16.62C38.502,16.62 34.735,20.35 34.735,24.901C34.735,29.452 38.502,33.181 43.092,33.181C47.683,33.181 51.45,29.452 51.45,24.901C51.45,20.35 47.683,16.62 43.092,16.62ZM86.49,19.749C82.383,19.749 79.007,23.09 79.007,27.162C79.007,31.234 82.383,34.575 86.49,34.575C90.596,34.575 93.971,31.234 93.971,27.162C93.971,23.09 90.596,19.749 86.49,19.749ZM43.092,20.588C45.524,20.588 47.45,22.498 47.45,24.901C47.45,27.304 45.524,29.214 43.092,29.214C40.66,29.214 38.734,27.304 38.734,24.901C38.734,22.498 40.66,20.588 43.092,20.588ZM86.49,23.716C88.438,23.716 89.973,25.237 89.973,27.162C89.973,29.087 88.438,30.608 86.49,30.608C84.541,30.608 83.007,29.087 83.007,27.162C83.007,25.237 84.541,23.716 86.49,23.716ZM19.235,41.932C18.972,41.932 18.712,41.984 18.469,42.084C18.227,42.183 18.006,42.329 17.82,42.514C17.635,42.698 17.487,42.917 17.387,43.157C17.287,43.398 17.235,43.656 17.235,43.917C17.235,44.443 17.446,44.947 17.821,45.319C18.196,45.691 18.704,45.9 19.235,45.901L24.124,45.901L24.124,73.992L-0.382,111.813C-0.576,112.113 -0.685,112.459 -0.698,112.815C-0.711,113.171 -0.627,113.524 -0.455,113.836C-0.282,114.149 -0.029,114.41 0.28,114.592C0.589,114.774 0.941,114.87 1.301,114.87L73.745,114.87C73.935,114.868 74.125,114.84 74.308,114.785C75.572,114.94 76.844,115.025 78.118,115.025C86.228,115.025 94.006,111.84 99.742,106.169C105.478,100.498 108.703,92.803 108.703,84.781C108.701,73.59 102.446,63.347 92.527,58.108L92.527,43.972C92.527,43.446 92.316,42.942 91.941,42.57C91.566,42.198 91.058,41.989 90.528,41.988L65.709,41.988C65.179,41.988 64.67,42.197 64.295,42.569C63.92,42.941 63.709,43.446 63.71,43.972L63.71,58.113C58.197,61.026 53.75,65.519 50.923,70.948L50.923,45.903L55.811,45.903C56.074,45.903 56.334,45.851 56.577,45.752C56.819,45.652 57.04,45.506 57.226,45.322C57.411,45.138 57.559,44.919 57.659,44.678C57.76,44.438 57.812,44.179 57.812,43.919C57.812,43.658 57.76,43.4 57.66,43.159C57.559,42.919 57.412,42.7 57.226,42.516C57.04,42.331 56.82,42.185 56.577,42.085C56.334,41.986 56.074,41.934 55.811,41.935L19.235,41.932ZM28.123,45.901L46.922,45.901L46.922,74.574C46.923,74.955 47.034,75.327 47.243,75.647L47.87,76.618L49.96,80.001C49.96,80.001 50.028,80.001 50.028,79.93L53.839,85.813C50.028,85.488 45.903,84.54 41.494,82.686C35.788,80.285 30.415,79.256 25.53,79.126L27.802,75.62C28.008,75.299 28.117,74.927 28.116,74.547L28.123,45.901ZM67.709,45.971L88.527,45.971L88.527,59.339C88.527,59.713 88.633,60.079 88.834,60.396C89.035,60.712 89.321,60.966 89.661,61.128C96.512,64.392 101.497,70.323 103.598,77.305C100.148,78.957 90.021,82.686 78.343,76.574C72.757,73.65 67.41,72.745 62.797,72.815C59.3,72.885 56.228,73.479 53.792,74.203C56.326,68.518 60.837,63.861 66.575,61.128C66.915,60.966 67.201,60.712 67.402,60.396C67.603,60.079 67.709,59.713 67.709,59.339L67.709,45.971ZM63.367,76.708C67.254,76.778 71.738,77.603 76.476,80.083C88.644,86.452 99.678,83.247 104.455,81.235C104.619,82.405 104.704,83.594 104.704,84.797C104.704,91.764 101.905,98.445 96.92,103.374C91.934,108.303 85.173,111.073 78.12,111.073C77.011,111.073 75.903,111.003 74.804,110.868L53.72,78.327C56.075,77.494 59.408,76.672 63.367,76.708ZM24.481,83.123C29.126,83.121 34.299,84.012 39.936,86.383C45.876,88.882 51.455,89.896 56.499,89.954L70.082,110.92L4.964,110.92L22.952,83.155C23.459,83.155 23.965,83.155 24.481,83.155L24.481,83.123Z" fill="#000000"/>
</svg>
